<svg width="297" height="69" viewBox="0 0 297 69" fill="none" xmlns="http://www.w3.org/2000/svg">
<path d="M33.8632 35.0733H23.3709L23.3148 29.2941H32.1238C33.6762 29.2941 34.948 29.0977 35.9392 28.7049C36.9305 28.2934 37.6692 27.7043 38.1555 26.9375C38.6605 26.152 38.913 25.1981 38.913 24.0759C38.913 22.8041 38.6698 21.7755 38.1836 20.99C37.716 20.2044 36.9772 19.634 35.9673 19.2786C34.976 18.9233 33.6949 18.7456 32.1238 18.7456H26.2885V53H17.8722V12.1528H32.1238C34.4991 12.1528 36.6219 12.3773 38.4922 12.8261C40.3812 13.275 41.9803 13.9577 43.2895 14.8741C44.5987 15.7905 45.5993 16.9501 46.2913 18.3528C46.9833 19.7369 47.3293 21.3827 47.3293 23.2904C47.3293 24.9737 46.9459 26.526 46.1791 27.9474C45.431 29.3689 44.2433 30.5284 42.6162 31.4262C41.0077 32.3239 38.9036 32.8196 36.3039 32.9131L33.8632 35.0733ZM33.4985 53H21.0704L24.3528 46.4353H33.4985C34.976 46.4353 36.1824 46.2015 37.1175 45.7339C38.0527 45.2476 38.7447 44.593 39.1935 43.7701C39.6424 42.9472 39.8668 42.0027 39.8668 40.9366C39.8668 39.7396 39.6611 38.7016 39.2496 37.8226C38.8569 36.9435 38.221 36.2702 37.3419 35.8027C36.4629 35.3164 35.3033 35.0733 33.8632 35.0733H25.7555L25.8116 29.2941H35.9112L37.8469 31.5665C40.3344 31.5291 42.3356 31.9686 43.8506 32.885C45.3842 33.7828 46.497 34.9517 47.189 36.3918C47.8997 37.8319 48.2551 39.3749 48.2551 41.0208C48.2551 43.6392 47.6847 45.8461 46.5438 47.6416C45.4029 49.4184 43.729 50.7557 41.522 51.6534C39.3338 52.5511 36.6593 53 33.4985 53ZM70.4461 46.1547V32.6325C70.4461 31.66 70.2871 30.8277 69.9692 30.1357C69.6512 29.425 69.1556 28.8732 68.4823 28.4805C67.8277 28.0877 66.9767 27.8913 65.9293 27.8913C65.0316 27.8913 64.2554 28.0503 63.6008 28.3683C62.9462 28.6675 62.4413 29.107 62.0859 29.6868C61.7305 30.2479 61.5529 30.9119 61.5529 31.6787H53.4732C53.4732 30.3882 53.7725 29.1631 54.3709 28.0036C54.9694 26.844 55.8391 25.8247 56.98 24.9456C58.1209 24.0479 59.4768 23.3465 61.0479 22.8415C62.6376 22.3366 64.4144 22.0841 66.3782 22.0841C68.7348 22.0841 70.8295 22.4768 72.6624 23.2624C74.4953 24.0479 75.9354 25.2262 76.9828 26.7972C78.0488 28.3683 78.5819 30.3321 78.5819 32.6886V45.6778C78.5819 47.3424 78.6847 48.7077 78.8905 49.7737C79.0962 50.8211 79.3954 51.7376 79.7882 52.5231V53H71.6244C71.2316 52.1771 70.9324 51.1484 70.7266 49.914C70.5396 48.6609 70.4461 47.4078 70.4461 46.1547ZM71.5122 34.5122L71.5683 39.085H67.0515C65.9855 39.085 65.0597 39.2066 64.2741 39.4497C63.4886 39.6929 62.8434 40.0389 62.3384 40.4877C61.8334 40.9179 61.4594 41.4229 61.2162 42.0027C60.9918 42.5825 60.8796 43.2184 60.8796 43.9104C60.8796 44.6024 61.0385 45.2289 61.3565 45.79C61.6744 46.3324 62.1327 46.7626 62.7311 47.0805C63.3296 47.3798 64.031 47.5294 64.8352 47.5294C66.0509 47.5294 67.1076 47.2863 68.0054 46.8C68.9031 46.3137 69.5951 45.7152 70.0814 45.0045C70.5864 44.2938 70.8482 43.6205 70.8669 42.9846L72.999 46.4072C72.6998 47.174 72.2883 47.9689 71.7647 48.7918C71.2597 49.6148 70.6144 50.3909 69.8289 51.1204C69.0434 51.8311 68.0989 52.4202 66.9954 52.8878C65.8919 53.3367 64.5827 53.5611 63.0678 53.5611C61.1414 53.5611 59.3927 53.1777 57.8216 52.4109C56.2693 51.6253 55.0349 50.5499 54.1185 49.1846C53.2207 47.8006 52.7718 46.2295 52.7718 44.4715C52.7718 42.8817 53.0711 41.4697 53.6696 40.2353C54.2681 39.0009 55.1471 37.9629 56.3067 37.1212C57.485 36.2609 58.9532 35.6156 60.7112 35.1855C62.4693 34.7366 64.5079 34.5122 66.8271 34.5122H71.5122ZM92.8896 29.266V53H84.8099V22.6452H92.4127L92.8896 29.266ZM102.035 22.4488L101.895 29.9393C101.502 29.8832 101.025 29.8364 100.464 29.799C99.9219 29.7429 99.4263 29.7149 98.9774 29.7149C97.8365 29.7149 96.8453 29.8645 96.0036 30.1637C95.1807 30.4443 94.4887 30.8651 93.9276 31.4262C93.3852 31.9873 92.9738 32.6699 92.6932 33.4742C92.4314 34.2784 92.2818 35.1948 92.2444 36.2235L90.6172 35.7185C90.6172 33.7547 90.8136 31.9499 91.2063 30.304C91.5991 28.6395 92.1695 27.19 92.9177 25.9556C93.6845 24.7212 94.6196 23.7673 95.7231 23.094C96.8266 22.4207 98.089 22.0841 99.5104 22.0841C99.9593 22.0841 100.418 22.1215 100.885 22.1963C101.353 22.2524 101.736 22.3366 102.035 22.4488ZM105.851 9.90848H113.93V46.0425L113.117 53H105.851V9.90848ZM133.148 37.514V38.1031C133.148 40.3662 132.904 42.4422 132.418 44.3312C131.951 46.2202 131.221 47.8567 130.23 49.2407C129.239 50.606 128.004 51.6721 126.527 52.4389C125.068 53.187 123.347 53.5611 121.365 53.5611C119.513 53.5611 117.905 53.187 116.539 52.4389C115.193 51.6908 114.061 50.6341 113.145 49.2688C112.228 47.9035 111.49 46.3044 110.929 44.4715C110.367 42.6386 109.947 40.6374 109.666 38.4678V37.1773C109.947 35.0078 110.367 33.0066 110.929 31.1737C111.49 29.3408 112.228 27.7417 113.145 26.3764C114.061 25.0111 115.193 23.9544 116.539 23.2063C117.886 22.4581 119.476 22.0841 121.309 22.0841C123.31 22.0841 125.049 22.4675 126.527 23.2343C128.023 23.9824 129.257 25.0485 130.23 26.4325C131.221 27.7978 131.951 29.425 132.418 31.314C132.904 33.1843 133.148 35.2509 133.148 37.514ZM125.068 38.1031V37.514C125.068 36.2796 124.974 35.12 124.787 34.0352C124.619 32.9318 124.32 31.9686 123.89 31.1456C123.46 30.304 122.87 29.6401 122.122 29.1538C121.393 28.6675 120.448 28.4244 119.289 28.4244C118.185 28.4244 117.25 28.6114 116.483 28.9855C115.717 29.3595 115.081 29.8832 114.576 30.5565C114.089 31.2298 113.725 32.034 113.482 32.9692C113.238 33.8856 113.089 34.8956 113.033 35.999V39.6742C113.089 41.1517 113.332 42.4609 113.762 43.6018C114.211 44.724 114.884 45.6123 115.782 46.267C116.698 46.9028 117.886 47.2208 119.345 47.2208C120.486 47.2208 121.43 46.9964 122.178 46.5475C122.926 46.0986 123.506 45.4627 123.918 44.6398C124.348 43.8169 124.647 42.8537 124.815 41.7502C124.984 40.628 125.068 39.4123 125.068 38.1031ZM154.553 46.1547V32.6325C154.553 31.66 154.394 30.8277 154.076 30.1357C153.758 29.425 153.263 28.8732 152.589 28.4805C151.935 28.0877 151.084 27.8913 150.036 27.8913C149.139 27.8913 148.362 28.0503 147.708 28.3683C147.053 28.6675 146.548 29.107 146.193 29.6868C145.838 30.2479 145.66 30.9119 145.66 31.6787H137.58C137.58 30.3882 137.879 29.1631 138.478 28.0036C139.076 26.844 139.946 25.8247 141.087 24.9456C142.228 24.0479 143.584 23.3465 145.155 22.8415C146.745 22.3366 148.521 22.0841 150.485 22.0841C152.842 22.0841 154.937 22.4768 156.769 23.2624C158.602 24.0479 160.042 25.2262 161.09 26.7972C162.156 28.3683 162.689 30.3321 162.689 32.6886V45.6778C162.689 47.3424 162.792 48.7077 162.997 49.7737C163.203 50.8211 163.502 51.7376 163.895 52.5231V53H155.731C155.339 52.1771 155.039 51.1484 154.834 49.914C154.647 48.6609 154.553 47.4078 154.553 46.1547ZM155.619 34.5122L155.675 39.085H151.159C150.092 39.085 149.167 39.2066 148.381 39.4497C147.596 39.6929 146.95 40.0389 146.445 40.4877C145.94 40.9179 145.566 41.4229 145.323 42.0027C145.099 42.5825 144.987 43.2184 144.987 43.9104C144.987 44.6024 145.146 45.2289 145.463 45.79C145.781 46.3324 146.24 46.7626 146.838 47.0805C147.437 47.3798 148.138 47.5294 148.942 47.5294C150.158 47.5294 151.215 47.2863 152.112 46.8C153.01 46.3137 153.702 45.7152 154.188 45.0045C154.693 44.2938 154.955 43.6205 154.974 42.9846L157.106 46.4072C156.807 47.174 156.395 47.9689 155.872 48.7918C155.367 49.6148 154.721 50.3909 153.936 51.1204C153.15 51.8311 152.206 52.4202 151.102 52.8878C149.999 53.3367 148.69 53.5611 147.175 53.5611C145.248 53.5611 143.5 53.1777 141.929 52.4109C140.376 51.6253 139.142 50.5499 138.225 49.1846C137.328 47.8006 136.879 46.2295 136.879 44.4715C136.879 42.8817 137.178 41.4697 137.777 40.2353C138.375 39.0009 139.254 37.9629 140.414 37.1212C141.592 36.2609 143.06 35.6156 144.818 35.1855C146.576 34.7366 148.615 34.5122 150.934 34.5122H155.619Z" fill="white"/>
<g filter="url(#filter0_d_1_290)">
<path d="M171.793 39.0826H161.385V32.5179H171.793C173.401 32.5179 174.711 32.256 175.721 31.7324C176.731 31.19 177.469 30.4419 177.937 29.488C178.404 28.5342 178.638 27.4587 178.638 26.2618C178.638 25.0461 178.404 23.9145 177.937 22.8672C177.469 21.8198 176.731 20.9782 175.721 20.3423C174.711 19.7064 173.401 19.3884 171.793 19.3884H164.302V53.6428H155.886V12.7957H171.793C174.991 12.7957 177.731 13.3754 180.013 14.535C182.313 15.6759 184.071 17.2563 185.287 19.2762C186.503 21.2961 187.111 23.6059 187.111 26.2056C187.111 28.8428 186.503 31.1245 185.287 33.0509C184.071 34.9773 182.313 36.4642 180.013 37.5116C177.731 38.5589 174.991 39.0826 171.793 39.0826ZM200.941 23.288V53.6428H192.834V23.288H200.941ZM192.329 15.3767C192.329 14.1984 192.74 13.2258 193.563 12.459C194.386 11.6922 195.49 11.3088 196.874 11.3088C198.239 11.3088 199.333 11.6922 200.156 12.459C200.998 13.2258 201.418 14.1984 201.418 15.3767C201.418 16.5549 200.998 17.5275 200.156 18.2943C199.333 19.0611 198.239 19.4445 196.874 19.4445C195.49 19.4445 194.386 19.0611 193.563 18.2943C192.74 17.5275 192.329 16.5549 192.329 15.3767ZM231.773 47.3306V53.6428H208.713V47.3306H231.773ZM231.324 27.945L211.967 53.6428H206.552V48.8455L225.826 23.288H231.324V27.945ZM228.463 23.288V29.6283H207.001V23.288H228.463ZM261.006 47.3306V53.6428H237.945V47.3306H261.006ZM260.557 27.945L241.2 53.6428H235.785V48.8455L255.058 23.288H260.557V27.945ZM257.695 23.288V29.6283H236.234V23.288H257.695ZM282.468 46.7976V33.2753C282.468 32.3028 282.309 31.4705 281.991 30.7785C281.673 30.0678 281.177 29.5161 280.504 29.1233C279.849 28.7305 278.998 28.5342 277.951 28.5342C277.053 28.5342 276.277 28.6931 275.622 29.0111C274.968 29.3103 274.463 29.7498 274.107 30.3296C273.752 30.8907 273.574 31.5547 273.574 32.3215H265.495C265.495 31.031 265.794 29.806 266.392 28.6464C266.991 27.4868 267.861 26.4675 269.001 25.5884C270.142 24.6907 271.498 23.9893 273.069 23.4844C274.659 22.9794 276.436 22.7269 278.4 22.7269C280.756 22.7269 282.851 23.1197 284.684 23.9052C286.517 24.6907 287.957 25.869 289.004 27.44C290.07 29.0111 290.603 30.9749 290.603 33.3315V46.3206C290.603 47.9852 290.706 49.3505 290.912 50.4166C291.118 51.4639 291.417 52.3804 291.81 53.1659V53.6428H283.646C283.253 52.8199 282.954 51.7912 282.748 50.5568C282.561 49.3037 282.468 48.0507 282.468 46.7976ZM283.534 35.155L283.59 39.7279H279.073C278.007 39.7279 277.081 39.8494 276.296 40.0926C275.51 40.3357 274.865 40.6817 274.36 41.1306C273.855 41.5607 273.481 42.0657 273.238 42.6455C273.013 43.2253 272.901 43.8612 272.901 44.5532C272.901 45.2452 273.06 45.8718 273.378 46.4328C273.696 46.9752 274.154 47.4054 274.753 47.7233C275.351 48.0226 276.052 48.1722 276.857 48.1722C278.072 48.1722 279.129 47.9291 280.027 47.4428C280.925 46.9565 281.617 46.358 282.103 45.6473C282.608 44.9366 282.87 44.2633 282.888 43.6274L285.02 47.05C284.721 47.8169 284.31 48.6117 283.786 49.4347C283.281 50.2576 282.636 51.0338 281.85 51.7632C281.065 52.4739 280.12 53.063 279.017 53.5306C277.913 53.9795 276.604 54.2039 275.089 54.2039C273.163 54.2039 271.414 53.8205 269.843 53.0537C268.291 52.2682 267.056 51.1927 266.14 49.8274C265.242 48.4434 264.793 46.8724 264.793 45.1143C264.793 43.5245 265.092 42.1125 265.691 40.8781C266.289 39.6437 267.169 38.6057 268.328 37.764C269.506 36.9037 270.975 36.2585 272.733 35.8283C274.491 35.3794 276.529 35.155 278.848 35.155H283.534Z" fill="#FF3F4B"/>
</g>
<defs>
<filter id="filter0_d_1_290" x="150.101" y="4.88014" width="146.209" height="53.1809" filterUnits="userSpaceOnUse" color-interpolation-filters="sRGB">
<feFlood flood-opacity="0" result="BackgroundImageFix"/>
<feColorMatrix in="SourceAlpha" type="matrix" values="0 0 0 0 0 0 0 0 0 0 0 0 0 0 0 0 0 0 127 0" result="hardAlpha"/>
<feOffset dx="-0.642857" dy="-1.28571"/>
<feGaussianBlur stdDeviation="2.57143"/>
<feComposite in2="hardAlpha" operator="out"/>
<feColorMatrix type="matrix" values="0 0 0 0 0 0 0 0 0 0 0 0 0 0 0 0 0 0 0.5 0"/>
<feBlend mode="normal" in2="BackgroundImageFix" result="effect1_dropShadow_1_290"/>
<feBlend mode="normal" in="SourceGraphic" in2="effect1_dropShadow_1_290" result="shape"/>
</filter>
</defs>
</svg>
